<svg xmlns="http://www.w3.org/2000/svg" viewBox="0 0 640 420" role="img" aria-label="Acessorios">
  <defs>
    <linearGradient id="bg" x1="0" x2="1" y1="0" y2="1">
      <stop offset="0" stop-color="#fff4e0"/>
      <stop offset="1" stop-color="#ffe0b0"/>
    </linearGradient>
  </defs>
  <rect width="640" height="420" rx="34" fill="url(#bg)"/>
  <circle cx="112" cy="94" r="68" fill="#ffffff" opacity=".55"/>
  <circle cx="532" cy="330" r="94" fill="#ef9f5f" opacity=".22"/>
  <path d="M188 248c0-88 58-154 132-154s132 66 132 154" fill="none" stroke="#394452" stroke-width="28" stroke-linecap="round"/>
  <rect x="148" y="226" width="78" height="112" rx="28" fill="#253244"/>
  <rect x="414" y="226" width="78" height="112" rx="28" fill="#253244"/>
  <rect x="166" y="244" width="42" height="76" rx="18" fill="#ffba6a"/>
  <rect x="432" y="244" width="42" height="76" rx="18" fill="#ffba6a"/>
  <circle cx="326" cy="246" r="60" fill="#ffffff"/>
  <circle cx="326" cy="246" r="42" fill="#fff0d8"/>
  <path d="M326 222v26l18 18" stroke="#253244" stroke-width="12" stroke-linecap="round" stroke-linejoin="round"/>
  <rect x="276" y="312" width="100" height="18" rx="9" fill="#253244"/>
</svg>
